Coordinates
version=1
nRows=5
nColumns=63
inDegrees=yes

Units are S.I. units (second, meters, Newtons, ...)
If the header above contains a line with 'inDegrees', this indicates whether rotational values are in degrees (yes) or radians (no).

endheader
time	pelvis_tilt	pelvis_list	pelvis_rotation	pelvis_tx	pelvis_ty	pelvis_tz	hip_flexion_r	hip_adduction_r	hip_rotation_r	knee_angle_r	knee_angle_r_beta	ankle_angle_r	subtalar_angle_r	mtp_angle_r	hip_flexion_l	hip_adduction_l	hip_rotation_l	knee_angle_l	knee_angle_l_beta	ankle_angle_l	subtalar_angle_l	mtp_angle_l	L5_S1_Flex_Ext	L5_S1_Lat_Bending	L5_S1_axial_rotation	L4_L5_Flex_Ext	L4_L5_Lat_Bending	L4_L5_axial_rotation	L3_L4_Flex_Ext	L3_L4_Lat_Bending	L3_L4_axial_rotation	L2_L3_Flex_Ext	L2_L3_Lat_Bending	L2_L3_axial_rotation	L1_L2_Flex_Ext	L1_L2_Lat_Bending	L1_L2_axial_rotation	L1_T12_Flex_Ext	L1_T12_Lat_Bending	L1_T12_axial_rotation	Abs_r3	Abs_r2	Abs_r1	Abs_t1	Abs_t2	neck_flexion	neck_bending	neck_rotation	arm_flex_r	arm_add_r	arm_rot_r	elbow_flex_r	pro_sup_r	wrist_flex_r	wrist_dev_r	arm_flex_l	arm_add_l	arm_rot_l	elbow_flex_l	pro_sup_l	wrist_flex_l	wrist_dev_l
      2.65306122	     -2.13143328	      3.93450802	    102.64996321	      0.18341519	      0.78316250	      0.74954373	      0.62163419	      4.18631821	     -2.51614419	     15.54906140	      0.27138232	     31.80091235	    -10.72369504	      0.00000000	      0.94662650	     -1.32808680	     12.81871989	     10.40177471	      0.18154522	     32.61150976	     -2.84310863	      0.00000000	     -0.22842644	     -0.03272165	     -1.13248572	     -0.42421073	     -0.04351980	     -1.20326608	     -0.37528179	     -0.07955943	     -1.20326608	     -0.26106857	     -0.07955943	     -0.99092501	     -0.21211679	     -0.06672600	     -0.92014465	     -0.13052287	     -0.05068584	     -0.84936429	     -1.63162719	     -0.37015390	     -6.29854583	      0.00000000	      0.00000000	     12.47084872	     10.08588111	      1.64917481	     39.24638011	      1.29448644	      6.66628641	    122.68253156	     82.78053347	    -18.29878006	     19.95669676	      6.20971771	    -18.05259512	     70.97121338	     20.78223489	     56.76583395	    -14.48808741	    -11.35317964
      2.67346939	     -2.02395785	      4.02961454	    102.59998207	      0.18320667	      0.78315703	      0.75085657	      0.69757746	      4.27495190	     -2.58022066	     15.67732390	      0.27362092	     31.77751546	    -10.73336612	      0.00000000	      0.91104745	     -1.43084911	     12.89275545	     10.39065527	      0.18135115	     32.85192890	     -2.86680198	      0.00000000	     -0.24967849	     -0.02919179	     -1.14692502	     -0.46367792	     -0.03882508	     -1.21860783	     -0.41019679	     -0.07097691	     -1.21860783	     -0.28535754	     -0.07097691	     -1.00355939	     -0.23185144	     -0.05952789	     -0.93187657	     -0.14266629	     -0.04521808	     -0.86019376	     -1.78342846	     -0.33022334	     -6.37885286	      0.00000000	      0.00000000	     12.05776136	     10.20820878	      1.47737795	     39.08939791	      2.65810944	      4.59620668	    121.52199867	     82.34292226	    -19.06806293	     20.22068726	      6.00238654	    -17.94682042	     71.00605771	     20.52804293	     56.73240920	    -14.43843241	    -11.21155678
      2.69387755	     -2.26299549	      4.01635203	    102.90953920	      0.18294674	      0.78321728	      0.75129308	      0.75148316	      4.01036844	     -2.84114361	     15.87186500	      0.27701630	     31.90716434	    -10.77696869	      0.00000000	      0.86640591	     -1.18027217	     13.32951144	     10.28126081	      0.17944185	     32.92720122	     -3.06771323	      0.00000000	     -0.24525473	     -0.08109876	     -1.15641554	     -0.45546257	     -0.10786135	     -1.22869151	     -0.40292900	     -0.19718353	     -1.22869151	     -0.28030164	     -0.19718353	     -1.01186359	     -0.22774355	     -0.16537659	     -0.93958762	     -0.14013856	     -0.12562198	     -0.86731165	     -1.75183004	     -0.91740540	     -6.43163629	      0.00000000	      0.00000000	     11.83192914	     10.62409983	      0.70702931	     38.89446661	      3.35091350	      3.39313497	    121.18774538	     77.22260801	    -21.61589738	     20.48456545	      5.94289570	    -18.08457671	     71.92088311	     20.23883872	     55.77433615	    -13.58290795	    -10.69243548
      2.71428571	     -2.28898498	      3.99453746	    103.02507074	      0.18296912	      0.78299828	      0.75181606	      0.79918103	      3.99173689	     -2.89789462	     15.87429885	      0.27705878	     31.92529023	    -10.81829293	      0.00000000	      0.90856150	     -1.16301375	     13.34868962	     10.19704048	      0.17797193	     33.14179209	     -3.09176372	      0.00000000	     -0.23966854	     -0.09308649	     -1.12737774	     -0.44508845	     -0.12380504	     -1.19783885	     -0.39375145	     -0.22633050	     -1.19783885	     -0.27391718	     -0.22633050	     -0.98645552	     -0.22255621	     -0.18982198	     -0.91599441	     -0.13694660	     -0.14419098	     -0.84553330	     -1.71192843	     -1.05301303	     -6.27013676	      0.00000000	      0.00000000	     11.93683179	     10.60494540	      0.70637263	     39.11996865	      3.33320012	      2.97259547	    120.76029414	     77.21250571	    -21.72975040	     20.50027855	      5.69943629	    -18.07524379	     71.94267548	     20.12850613	     55.72064792	    -13.53840545	    -10.57219714
      2.73469388	     -2.67586695	      3.71748729	    102.58188253	      0.18408690	      0.78243044	      0.75286559	      1.47094024	      3.50561855	     -2.54760218	     16.61117192	      0.28991964	     32.32770452	    -10.79601216	      0.00000000	      0.97389260	     -0.75107955	     13.01447142	      9.77865487	      0.17066972	     33.21254727	     -3.07168639	      0.00000000	     -0.22637942	     -0.14670301	     -0.91025736	     -0.42040922	     -0.19511500	     -0.96714845	     -0.37191875	     -0.35669370	     -0.96714845	     -0.25872904	     -0.35669370	     -0.79647519	     -0.21021593	     -0.29915678	     -0.73958411	     -0.12935320	     -0.22724296	     -0.68269302	     -1.61700554	     -1.65953379	     -5.06257837	      0.00000000	      0.00000000	     12.60583881	     10.25926080	      0.01403609	     39.47440354	      3.18981084	      3.10953274	    120.98004620	     76.52867449	    -21.79055947	     20.29345391	      5.91085357	    -18.13182729	     71.80615371	     20.13709804	     54.25922331	    -11.85030032	     -8.94288091
